<svg width="23" height="22" viewBox="0 0 23 22" fill="none" xmlns="http://www.w3.org/2000/svg">
<path d="M7.66226 19.4595H3.82442C3.56996 19.4595 3.32592 19.3569 3.14598 19.1745C2.96605 18.992 2.86496 18.7445 2.86496 18.4865V14.5946C2.86496 14.3365 2.76388 14.0891 2.58394 13.9066C2.40401 13.7241 2.15997 13.6216 1.9055 13.6216C1.65104 13.6216 1.407 13.7241 1.22706 13.9066C1.04713 14.0891 0.946045 14.3365 0.946045 14.5946V18.4865C0.946045 19.2606 1.2493 20.0031 1.7891 20.5505C2.3289 21.0979 3.06103 21.4054 3.82442 21.4054H7.66226C7.91673 21.4054 8.16077 21.3029 8.3407 21.1204C8.52063 20.938 8.62172 20.6905 8.62172 20.4324C8.62172 20.1744 8.52063 19.9269 8.3407 19.7444C8.16077 19.562 7.91673 19.4595 7.66226 19.4595ZM21.0947 13.6216C20.8402 13.6216 20.5962 13.7241 20.4163 13.9066C20.2363 14.0891 20.1352 14.3365 20.1352 14.5946V18.4865C20.1352 18.7445 20.0341 18.992 19.8542 19.1745C19.6743 19.3569 19.4302 19.4595 19.1758 19.4595H15.3379C15.0835 19.4595 14.8394 19.562 14.6595 19.7444C14.4796 19.9269 14.3785 20.1744 14.3785 20.4324C14.3785 20.6905 14.4796 20.938 14.6595 21.1204C14.8394 21.3029 15.0835 21.4054 15.3379 21.4054H19.1758C19.9392 21.4054 20.6713 21.0979 21.2111 20.5505C21.7509 20.0031 22.0542 19.2606 22.0542 18.4865V14.5946C22.0542 14.3365 21.9531 14.0891 21.7731 13.9066C21.5932 13.7241 21.3492 13.6216 21.0947 13.6216ZM19.1758 0H15.3379C15.0835 0 14.8394 0.102509 14.6595 0.284977C14.4796 0.467445 14.3785 0.714924 14.3785 0.972973C14.3785 1.23102 14.4796 1.4785 14.6595 1.66097C14.8394 1.84344 15.0835 1.94595 15.3379 1.94595H19.1758C19.4302 1.94595 19.6743 2.04846 19.8542 2.23092C20.0341 2.41339 20.1352 2.66087 20.1352 2.91892V6.81081C20.1352 7.06886 20.2363 7.31634 20.4163 7.49881C20.5962 7.68127 20.8402 7.78378 21.0947 7.78378C21.3492 7.78378 21.5932 7.68127 21.7731 7.49881C21.9531 7.31634 22.0542 7.06886 22.0542 6.81081V2.91892C22.0542 2.14477 21.7509 1.40233 21.2111 0.854931C20.6713 0.307528 19.9392 0 19.1758 0ZM1.9055 7.78378C2.15997 7.78378 2.40401 7.68127 2.58394 7.49881C2.76388 7.31634 2.86496 7.06886 2.86496 6.81081V2.91892C2.86496 2.66087 2.96605 2.41339 3.14598 2.23092C3.32592 2.04846 3.56996 1.94595 3.82442 1.94595H7.66226C7.91673 1.94595 8.16077 1.84344 8.3407 1.66097C8.52063 1.4785 8.62172 1.23102 8.62172 0.972973C8.62172 0.714924 8.52063 0.467445 8.3407 0.284977C8.16077 0.102509 7.91673 0 7.66226 0H3.82442C3.06103 0 2.3289 0.307528 1.7891 0.854931C1.2493 1.40233 0.946045 2.14477 0.946045 2.91892V6.81081C0.946045 7.06886 1.04713 7.31634 1.22706 7.49881C1.407 7.68127 1.65104 7.78378 1.9055 7.78378ZM9.58118 3.89189H5.74334C5.48888 3.89189 5.24484 3.9944 5.0649 4.17687C4.88497 4.35934 4.78388 4.60682 4.78388 4.86486V8.75676C4.78388 9.0148 4.88497 9.26228 5.0649 9.44475C5.24484 9.62722 5.48888 9.72973 5.74334 9.72973H9.58118C9.83564 9.72973 10.0797 9.62722 10.2596 9.44475C10.4396 9.26228 10.5406 9.0148 10.5406 8.75676V4.86486C10.5406 4.60682 10.4396 4.35934 10.2596 4.17687C10.0797 3.9944 9.83564 3.89189 9.58118 3.89189ZM8.62172 7.78378H6.7028V5.83784H8.62172V7.78378ZM13.419 9.72973H17.2569C17.5113 9.72973 17.7554 9.62722 17.9353 9.44475C18.1152 9.26228 18.2163 9.0148 18.2163 8.75676V4.86486C18.2163 4.60682 18.1152 4.35934 17.9353 4.17687C17.7554 3.9944 17.5113 3.89189 17.2569 3.89189H13.419C13.1646 3.89189 12.9205 3.9944 12.7406 4.17687C12.5606 4.35934 12.4596 4.60682 12.4596 4.86486V8.75676C12.4596 9.0148 12.5606 9.26228 12.7406 9.44475C12.9205 9.62722 13.1646 9.72973 13.419 9.72973ZM14.3785 5.83784H16.2974V7.78378H14.3785V5.83784ZM9.58118 11.6757H5.74334C5.48888 11.6757 5.24484 11.7782 5.0649 11.9607C4.88497 12.1431 4.78388 12.3906 4.78388 12.6486V16.5405C4.78388 16.7986 4.88497 17.0461 5.0649 17.2285C5.24484 17.411 5.48888 17.5135 5.74334 17.5135H9.58118C9.83564 17.5135 10.0797 17.411 10.2596 17.2285C10.4396 17.0461 10.5406 16.7986 10.5406 16.5405V12.6486C10.5406 12.3906 10.4396 12.1431 10.2596 11.9607C10.0797 11.7782 9.83564 11.6757 9.58118 11.6757ZM8.62172 15.5676H6.7028V13.6216H8.62172V15.5676ZM13.419 14.5946C13.6735 14.5946 13.9175 14.4921 14.0975 14.3096C14.2774 14.1271 14.3785 13.8797 14.3785 13.6216C14.6329 13.6216 14.877 13.5191 15.0569 13.3366C15.2369 13.1542 15.3379 12.9067 15.3379 12.6486C15.3379 12.3906 15.2369 12.1431 15.0569 11.9607C14.877 11.7782 14.6329 11.6757 14.3785 11.6757H13.419C13.1646 11.6757 12.9205 11.7782 12.7406 11.9607C12.5606 12.1431 12.4596 12.3906 12.4596 12.6486V13.6216C12.4596 13.8797 12.5606 14.1271 12.7406 14.3096C12.9205 14.4921 13.1646 14.5946 13.419 14.5946ZM17.2569 11.6757C17.0024 11.6757 16.7583 11.7782 16.5784 11.9607C16.3985 12.1431 16.2974 12.3906 16.2974 12.6486V15.5676C16.0429 15.5676 15.7989 15.6701 15.619 15.8525C15.439 16.035 15.3379 16.2825 15.3379 16.5405C15.3379 16.7986 15.439 17.0461 15.619 17.2285C15.7989 17.411 16.0429 17.5135 16.2974 17.5135H17.2569C17.5113 17.5135 17.7554 17.411 17.9353 17.2285C18.1152 17.0461 18.2163 16.7986 18.2163 16.5405V12.6486C18.2163 12.3906 18.1152 12.1431 17.9353 11.9607C17.7554 11.7782 17.5113 11.6757 17.2569 11.6757ZM13.419 15.5676C13.2293 15.5676 13.0438 15.6246 12.886 15.7315C12.7282 15.8385 12.6052 15.9904 12.5326 16.1682C12.46 16.346 12.441 16.5416 12.478 16.7304C12.515 16.9191 12.6064 17.0925 12.7406 17.2285C12.8748 17.3646 13.0457 17.4573 13.2318 17.4948C13.418 17.5324 13.6109 17.5131 13.7862 17.4394C13.9615 17.3658 14.1114 17.2411 14.2168 17.0811C14.3222 16.9211 14.3785 16.733 14.3785 16.5405C14.3785 16.2825 14.2774 16.035 14.0975 15.8525C13.9175 15.6701 13.6735 15.5676 13.419 15.5676Z" fill="#3F88EB"/>
</svg>
